<mxfile host="app.diagrams.net" modified="2022-04-09T06:48:27.510Z" agent="5.0 (Windows NT 10.0; Win64; x64) AppleWebKit/537.36 (KHTML, like Gecko) Chrome/88.0.4324.150 Safari/537.36 Edg/88.0.705.63" etag="rdOnC25ayaM3wrb9t_9t" version="17.4.1" type="github">
  <diagram id="R-A1RE0tbq2NOlvz1f-p" name="Page-1">
    <mxGraphModel dx="2249" dy="794" grid="1" gridSize="10" guides="1" tooltips="1" connect="1" arrows="1" fold="1" page="1" pageScale="1" pageWidth="827" pageHeight="1169" math="0" shadow="0">
      <root>
        <mxCell id="0" />
        <mxCell id="1" parent="0" />
        <mxCell id="G4SD39_D4OFIK5JpIx4b-8" style="edgeStyle=orthogonalEdgeStyle;rounded=1;orthogonalLoop=1;jettySize=auto;html=1;exitX=1;exitY=0.5;exitDx=0;exitDy=0;entryX=0;entryY=0.5;entryDx=0;entryDy=0;endArrow=none;endFill=0;" edge="1" parent="1" source="G4SD39_D4OFIK5JpIx4b-2" target="G4SD39_D4OFIK5JpIx4b-3">
          <mxGeometry relative="1" as="geometry" />
        </mxCell>
        <mxCell id="G4SD39_D4OFIK5JpIx4b-2" value="Android应用" style="rounded=0;whiteSpace=wrap;html=1;" vertex="1" parent="1">
          <mxGeometry x="20" y="330" width="160" height="70" as="geometry" />
        </mxCell>
        <mxCell id="G4SD39_D4OFIK5JpIx4b-3" value="简易备忘录" style="rounded=0;whiteSpace=wrap;html=1;" vertex="1" parent="1">
          <mxGeometry x="230" y="220" width="130" height="60" as="geometry" />
        </mxCell>
        <mxCell id="G4SD39_D4OFIK5JpIx4b-9" value="" style="edgeStyle=orthogonalEdgeStyle;rounded=1;orthogonalLoop=1;jettySize=auto;html=1;endArrow=none;endFill=0;" edge="1" parent="1" source="G4SD39_D4OFIK5JpIx4b-5" target="G4SD39_D4OFIK5JpIx4b-2">
          <mxGeometry relative="1" as="geometry" />
        </mxCell>
        <mxCell id="G4SD39_D4OFIK5JpIx4b-11" style="edgeStyle=orthogonalEdgeStyle;rounded=1;orthogonalLoop=1;jettySize=auto;html=1;exitX=1;exitY=0.5;exitDx=0;exitDy=0;endArrow=none;endFill=0;entryX=0;entryY=0.5;entryDx=0;entryDy=0;" edge="1" parent="1" source="G4SD39_D4OFIK5JpIx4b-5" target="G4SD39_D4OFIK5JpIx4b-15">
          <mxGeometry relative="1" as="geometry">
            <mxPoint x="480" y="365" as="targetPoint" />
          </mxGeometry>
        </mxCell>
        <mxCell id="G4SD39_D4OFIK5JpIx4b-5" value="添加闹钟" style="rounded=0;whiteSpace=wrap;html=1;" vertex="1" parent="1">
          <mxGeometry x="230" y="335" width="130" height="60" as="geometry" />
        </mxCell>
        <mxCell id="G4SD39_D4OFIK5JpIx4b-10" style="edgeStyle=orthogonalEdgeStyle;rounded=1;orthogonalLoop=1;jettySize=auto;html=1;exitX=0;exitY=0.5;exitDx=0;exitDy=0;entryX=1;entryY=0.5;entryDx=0;entryDy=0;endArrow=none;endFill=0;" edge="1" parent="1" source="G4SD39_D4OFIK5JpIx4b-7" target="G4SD39_D4OFIK5JpIx4b-2">
          <mxGeometry relative="1" as="geometry" />
        </mxCell>
        <mxCell id="G4SD39_D4OFIK5JpIx4b-16" style="edgeStyle=orthogonalEdgeStyle;rounded=1;orthogonalLoop=1;jettySize=auto;html=1;exitX=1;exitY=0.5;exitDx=0;exitDy=0;entryX=0;entryY=0.5;entryDx=0;entryDy=0;fontSize=20;endArrow=none;endFill=0;" edge="1" parent="1" source="G4SD39_D4OFIK5JpIx4b-7" target="G4SD39_D4OFIK5JpIx4b-15">
          <mxGeometry relative="1" as="geometry" />
        </mxCell>
        <mxCell id="G4SD39_D4OFIK5JpIx4b-19" style="edgeStyle=orthogonalEdgeStyle;rounded=1;orthogonalLoop=1;jettySize=auto;html=1;exitX=0.5;exitY=1;exitDx=0;exitDy=0;entryX=0;entryY=1;entryDx=0;entryDy=0;fontSize=20;endArrow=none;endFill=0;" edge="1" parent="1" source="G4SD39_D4OFIK5JpIx4b-7" target="G4SD39_D4OFIK5JpIx4b-12">
          <mxGeometry relative="1" as="geometry" />
        </mxCell>
        <mxCell id="G4SD39_D4OFIK5JpIx4b-7" value="开关机控制" style="rounded=0;whiteSpace=wrap;html=1;" vertex="1" parent="1">
          <mxGeometry x="230" y="450" width="130" height="60" as="geometry" />
        </mxCell>
        <mxCell id="G4SD39_D4OFIK5JpIx4b-12" value="" style="whiteSpace=wrap;html=1;aspect=fixed;" vertex="1" parent="1">
          <mxGeometry x="690" y="170" width="390" height="390" as="geometry" />
        </mxCell>
        <mxCell id="G4SD39_D4OFIK5JpIx4b-13" value="&lt;font style=&quot;font-size: 20px&quot;&gt;arm设备&lt;/font&gt;" style="text;html=1;resizable=0;autosize=1;align=center;verticalAlign=middle;points=[];fillColor=none;strokeColor=none;rounded=0;" vertex="1" parent="1">
          <mxGeometry x="827" y="210" width="90" height="20" as="geometry" />
        </mxCell>
        <mxCell id="G4SD39_D4OFIK5JpIx4b-18" style="edgeStyle=orthogonalEdgeStyle;rounded=1;orthogonalLoop=1;jettySize=auto;html=1;exitX=1;exitY=0.5;exitDx=0;exitDy=0;entryX=0;entryY=0.5;entryDx=0;entryDy=0;fontSize=20;endArrow=none;endFill=0;" edge="1" parent="1" source="G4SD39_D4OFIK5JpIx4b-15" target="G4SD39_D4OFIK5JpIx4b-12">
          <mxGeometry relative="1" as="geometry" />
        </mxCell>
        <mxCell id="G4SD39_D4OFIK5JpIx4b-15" value="JSch" style="rounded=0;whiteSpace=wrap;html=1;fontSize=20;" vertex="1" parent="1">
          <mxGeometry x="510" y="335" width="120" height="60" as="geometry" />
        </mxCell>
        <mxCell id="G4SD39_D4OFIK5JpIx4b-17" value="开机" style="text;html=1;resizable=0;autosize=1;align=center;verticalAlign=middle;points=[];fillColor=none;strokeColor=none;rounded=0;fontSize=20;" vertex="1" parent="1">
          <mxGeometry x="370" y="445" width="60" height="30" as="geometry" />
        </mxCell>
        <mxCell id="G4SD39_D4OFIK5JpIx4b-20" value="WakeOnLan" style="text;html=1;resizable=0;autosize=1;align=center;verticalAlign=middle;points=[];fillColor=none;strokeColor=none;rounded=0;fontSize=20;" vertex="1" parent="1">
          <mxGeometry x="485" y="495" width="130" height="30" as="geometry" />
        </mxCell>
        <mxCell id="G4SD39_D4OFIK5JpIx4b-21" value="TTS(Ekho,MockingBird,PaddleSpeech)" style="rounded=0;whiteSpace=wrap;html=1;fontSize=20;" vertex="1" parent="1">
          <mxGeometry x="690" y="260" width="390" height="60" as="geometry" />
        </mxCell>
        <mxCell id="G4SD39_D4OFIK5JpIx4b-23" value="Pexpect等工具" style="rounded=0;whiteSpace=wrap;html=1;fontSize=20;" vertex="1" parent="1">
          <mxGeometry x="690" y="320" width="200" height="60" as="geometry" />
        </mxCell>
        <mxCell id="G4SD39_D4OFIK5JpIx4b-24" value="crontab" style="rounded=0;whiteSpace=wrap;html=1;fontSize=20;" vertex="1" parent="1">
          <mxGeometry x="890" y="320" width="190" height="60" as="geometry" />
        </mxCell>
        <mxCell id="G4SD39_D4OFIK5JpIx4b-27" value="request获取天气数据" style="rounded=0;whiteSpace=wrap;html=1;fontSize=20;" vertex="1" parent="1">
          <mxGeometry x="690" y="380" width="390" height="60" as="geometry" />
        </mxCell>
        <mxCell id="G4SD39_D4OFIK5JpIx4b-28" value="" style="whiteSpace=wrap;html=1;aspect=fixed;fontSize=20;" vertex="1" parent="1">
          <mxGeometry x="-130" y="160" width="240" height="240" as="geometry" />
        </mxCell>
      </root>
    </mxGraphModel>
  </diagram>
</mxfile>
